<mxfile host="Electron" agent="Mozilla/5.0 (X11; Linux x86_64) AppleWebKit/537.36 (KHTML, like Gecko) draw.io/28.2.5 Chrome/138.0.7204.251 Electron/37.6.1 Safari/537.36" version="28.2.5">
  <diagram name="Page-1" id="9eDeHBoRNc1jH9MRTDb2">
    <mxGraphModel dx="1783" dy="1054" grid="1" gridSize="10" guides="1" tooltips="1" connect="1" arrows="1" fold="1" page="1" pageScale="1" pageWidth="850" pageHeight="1100" math="0" shadow="0">
      <root>
        <mxCell id="0" />
        <mxCell id="1" parent="0" />
        <mxCell id="FHG9pHrHQT706ERKXKWO-1" value="" style="rounded=1;whiteSpace=wrap;html=1;arcSize=2;fillColor=#f5f5f5;fontColor=#333333;strokeColor=#666666;movable=0;resizable=0;rotatable=0;deletable=0;editable=0;locked=1;connectable=0;" parent="1" vertex="1">
          <mxGeometry x="200" y="60" width="1300" height="1020" as="geometry" />
        </mxCell>
        <mxCell id="FHG9pHrHQT706ERKXKWO-2" value="" style="group;fillColor=#dae8fc;strokeColor=#6c8ebf;" parent="1" vertex="1" connectable="0">
          <mxGeometry x="1040" y="460" width="370" height="290" as="geometry" />
        </mxCell>
        <mxCell id="FHG9pHrHQT706ERKXKWO-3" value="" style="rounded=0;whiteSpace=wrap;html=1;dashed=1;" parent="FHG9pHrHQT706ERKXKWO-2" vertex="1">
          <mxGeometry width="370" height="290" as="geometry" />
        </mxCell>
        <mxCell id="FHG9pHrHQT706ERKXKWO-4" value="Per partner X" style="text;html=1;align=center;verticalAlign=middle;whiteSpace=wrap;rounded=0;fontStyle=1;fontSize=14;" parent="FHG9pHrHQT706ERKXKWO-2" vertex="1">
          <mxGeometry width="370" height="24.857142857142854" as="geometry" />
        </mxCell>
        <mxCell id="FHG9pHrHQT706ERKXKWO-5" style="edgeStyle=orthogonalEdgeStyle;rounded=0;orthogonalLoop=1;jettySize=auto;html=1;exitX=1;exitY=0.5;exitDx=0;exitDy=0;entryX=0;entryY=0.5;entryDx=0;entryDy=0;" parent="1" source="FHG9pHrHQT706ERKXKWO-6" target="FHG9pHrHQT706ERKXKWO-10" edge="1">
          <mxGeometry relative="1" as="geometry" />
        </mxCell>
        <mxCell id="FHG9pHrHQT706ERKXKWO-6" value="User Browser&#xa;+ Webflow Form" style="rounded=1;whiteSpace=wrap;html=1;fontSize=12;" parent="1" vertex="1">
          <mxGeometry x="20" y="505" width="110" height="70" as="geometry" />
        </mxCell>
        <mxCell id="FHG9pHrHQT706ERKXKWO-7" style="rounded=0;orthogonalLoop=1;jettySize=auto;html=1;exitX=1;exitY=0.5;exitDx=0;exitDy=0;" parent="1" source="FHG9pHrHQT706ERKXKWO-10" target="FHG9pHrHQT706ERKXKWO-20" edge="1">
          <mxGeometry relative="1" as="geometry">
            <mxPoint x="440" y="540" as="targetPoint" />
          </mxGeometry>
        </mxCell>
        <mxCell id="FHG9pHrHQT706ERKXKWO-8" style="edgeStyle=orthogonalEdgeStyle;rounded=0;orthogonalLoop=1;jettySize=auto;html=1;exitX=0.75;exitY=1;exitDx=0;exitDy=0;entryX=0;entryY=0.75;entryDx=0;entryDy=0;fillColor=#e1d5e7;strokeColor=#9673a6;" parent="1" source="FHG9pHrHQT706ERKXKWO-10" target="FHG9pHrHQT706ERKXKWO-14" edge="1">
          <mxGeometry relative="1" as="geometry" />
        </mxCell>
        <mxCell id="FHG9pHrHQT706ERKXKWO-10" value="/api/submit&lt;div&gt;+ Initial validation&lt;br&gt;&lt;div&gt;(Function)&lt;/div&gt;&lt;/div&gt;" style="rounded=1;whiteSpace=wrap;html=1;fontSize=12;fillColor=#dae8fc;strokeColor=#6c8ebf;" parent="1" vertex="1">
          <mxGeometry x="230" y="505" width="130" height="70" as="geometry" />
        </mxCell>
        <mxCell id="FHG9pHrHQT706ERKXKWO-11" value="Leads" style="shape=datastore;whiteSpace=wrap;html=1;fontSize=12;fillColor=#d5e8d4;strokeColor=#82b366;" parent="1" vertex="1">
          <mxGeometry x="1140" y="770" width="80" height="80" as="geometry" />
        </mxCell>
        <mxCell id="FHG9pHrHQT706ERKXKWO-12" style="rounded=0;orthogonalLoop=1;jettySize=auto;html=1;entryX=0;entryY=0.5;entryDx=0;entryDy=0;" parent="1" source="FHG9pHrHQT706ERKXKWO-20" target="FHG9pHrHQT706ERKXKWO-19" edge="1">
          <mxGeometry relative="1" as="geometry">
            <mxPoint x="590" y="540" as="sourcePoint" />
          </mxGeometry>
        </mxCell>
        <mxCell id="FHG9pHrHQT706ERKXKWO-13" value="PartnerX API" style="rounded=1;whiteSpace=wrap;html=1;fontSize=12;fillColor=#e1d5e7;strokeColor=#9673a6;" parent="1" vertex="1">
          <mxGeometry x="1540" y="505" width="130" height="70" as="geometry" />
        </mxCell>
        <mxCell id="FHG9pHrHQT706ERKXKWO-14" value="Sentry&lt;div&gt;(Logs + Dashboard)&lt;/div&gt;" style="rounded=1;whiteSpace=wrap;html=1;fillColor=#e1d5e7;strokeColor=#9673a6;fontSize=12" parent="1" vertex="1">
          <mxGeometry x="1540" y="890" width="130" height="70" as="geometry" />
        </mxCell>
        <mxCell id="FHG9pHrHQT706ERKXKWO-15" style="edgeStyle=orthogonalEdgeStyle;rounded=0;orthogonalLoop=1;jettySize=auto;html=1;exitX=0.25;exitY=1;exitDx=0;exitDy=0;" parent="1" source="FHG9pHrHQT706ERKXKWO-19" target="FHG9pHrHQT706ERKXKWO-21" edge="1">
          <mxGeometry relative="1" as="geometry">
            <Array as="points">
              <mxPoint x="595" y="665" />
            </Array>
          </mxGeometry>
        </mxCell>
        <mxCell id="FHG9pHrHQT706ERKXKWO-16" style="edgeStyle=orthogonalEdgeStyle;rounded=0;orthogonalLoop=1;jettySize=auto;html=1;exitX=1;exitY=0.5;exitDx=0;exitDy=0;" parent="1" source="FHG9pHrHQT706ERKXKWO-53" target="FHG9pHrHQT706ERKXKWO-35" edge="1">
          <mxGeometry relative="1" as="geometry" />
        </mxCell>
        <mxCell id="FHG9pHrHQT706ERKXKWO-17" style="edgeStyle=orthogonalEdgeStyle;rounded=0;orthogonalLoop=1;jettySize=auto;html=1;exitX=0.5;exitY=1;exitDx=0;exitDy=0;entryX=0;entryY=0.5;entryDx=0;entryDy=0;fillColor=#e1d5e7;strokeColor=#9673a6;" parent="1" source="FHG9pHrHQT706ERKXKWO-19" target="FHG9pHrHQT706ERKXKWO-14" edge="1">
          <mxGeometry relative="1" as="geometry" />
        </mxCell>
        <mxCell id="FHG9pHrHQT706ERKXKWO-18" style="edgeStyle=orthogonalEdgeStyle;rounded=0;orthogonalLoop=1;jettySize=auto;html=1;exitX=0.75;exitY=1;exitDx=0;exitDy=0;entryX=0.5;entryY=0;entryDx=0;entryDy=0;" parent="1" source="FHG9pHrHQT706ERKXKWO-19" target="FHG9pHrHQT706ERKXKWO-48" edge="1">
          <mxGeometry relative="1" as="geometry" />
        </mxCell>
        <mxCell id="FHG9pHrHQT706ERKXKWO-19" value="Identify lead&lt;div&gt;(Function)&lt;/div&gt;" style="rounded=1;whiteSpace=wrap;html=1;fillColor=#dae8fc;strokeColor=#6c8ebf;" parent="1" vertex="1">
          <mxGeometry x="557.5" y="510" width="150" height="60" as="geometry" />
        </mxCell>
        <mxCell id="FHG9pHrHQT706ERKXKWO-20" value="Submission&lt;div&gt;Queue&lt;/div&gt;" style="sketch=0;outlineConnect=0;strokeColor=#d79b00;fillColor=#ffe6cc;dashed=0;verticalLabelPosition=bottom;verticalAlign=top;align=center;html=1;fontSize=12;fontStyle=0;aspect=fixed;shape=mxgraph.aws4.resourceIcon;resIcon=mxgraph.aws4.queue;" parent="1" vertex="1">
          <mxGeometry x="440" y="510" width="60" height="60" as="geometry" />
        </mxCell>
        <mxCell id="FHG9pHrHQT706ERKXKWO-21" value="Submission&lt;div&gt;DLQueue&lt;/div&gt;" style="sketch=0;outlineConnect=0;strokeColor=#d79b00;fillColor=#ffe6cc;dashed=0;verticalLabelPosition=bottom;verticalAlign=top;align=center;html=1;fontSize=12;fontStyle=0;aspect=fixed;shape=mxgraph.aws4.resourceIcon;resIcon=mxgraph.aws4.queue;" parent="1" vertex="1">
          <mxGeometry x="440" y="630" width="60" height="60" as="geometry" />
        </mxCell>
        <mxCell id="FHG9pHrHQT706ERKXKWO-22" value="Rules" style="shape=datastore;whiteSpace=wrap;html=1;fontSize=12;fillColor=#d5e8d4;strokeColor=#82b366;" parent="1" vertex="1">
          <mxGeometry x="580" y="260" width="90" height="50" as="geometry" />
        </mxCell>
        <mxCell id="FHG9pHrHQT706ERKXKWO-23" style="edgeStyle=orthogonalEdgeStyle;rounded=0;orthogonalLoop=1;jettySize=auto;html=1;exitX=1;exitY=0.5;exitDx=0;exitDy=0;entryX=0;entryY=0.5;entryDx=0;entryDy=0;" parent="1" source="FHG9pHrHQT706ERKXKWO-24" target="FHG9pHrHQT706ERKXKWO-27" edge="1">
          <mxGeometry relative="1" as="geometry" />
        </mxCell>
        <mxCell id="FHG9pHrHQT706ERKXKWO-24" value="Rules Admin UI" style="rounded=1;whiteSpace=wrap;html=1;fontSize=12;" parent="1" vertex="1">
          <mxGeometry x="20" y="135" width="110" height="70" as="geometry" />
        </mxCell>
        <mxCell id="FHG9pHrHQT706ERKXKWO-25" style="edgeStyle=orthogonalEdgeStyle;rounded=0;orthogonalLoop=1;jettySize=auto;html=1;exitX=1;exitY=0.75;exitDx=0;exitDy=0;entryX=0;entryY=0.5;entryDx=0;entryDy=0;" parent="1" source="FHG9pHrHQT706ERKXKWO-27" target="FHG9pHrHQT706ERKXKWO-22" edge="1">
          <mxGeometry relative="1" as="geometry" />
        </mxCell>
        <mxCell id="FHG9pHrHQT706ERKXKWO-26" style="edgeStyle=orthogonalEdgeStyle;rounded=0;orthogonalLoop=1;jettySize=auto;html=1;exitX=1;exitY=0.5;exitDx=0;exitDy=0;" parent="1" source="FHG9pHrHQT706ERKXKWO-27" target="FHG9pHrHQT706ERKXKWO-29" edge="1">
          <mxGeometry relative="1" as="geometry" />
        </mxCell>
        <mxCell id="-AXDvyKxRIpU5BXK8RGJ-7" style="edgeStyle=orthogonalEdgeStyle;rounded=0;orthogonalLoop=1;jettySize=auto;html=1;exitX=1;exitY=0.75;exitDx=0;exitDy=0;entryX=0;entryY=0.5;entryDx=0;entryDy=0;" edge="1" parent="1" source="-AXDvyKxRIpU5BXK8RGJ-13" target="-AXDvyKxRIpU5BXK8RGJ-1">
          <mxGeometry relative="1" as="geometry">
            <mxPoint x="360" y="215.0199999999999" as="sourcePoint" />
            <mxPoint x="580.0000000000002" y="407.52" as="targetPoint" />
          </mxGeometry>
        </mxCell>
        <mxCell id="FHG9pHrHQT706ERKXKWO-27" value="/api/rules&lt;div&gt;+ validation&lt;br&gt;&lt;div&gt;(Function)&lt;/div&gt;&lt;/div&gt;" style="rounded=1;whiteSpace=wrap;html=1;fontSize=12;fillColor=#dae8fc;strokeColor=#6c8ebf;" parent="1" vertex="1">
          <mxGeometry x="230" y="135" width="130" height="70" as="geometry" />
        </mxCell>
        <mxCell id="FHG9pHrHQT706ERKXKWO-28" style="edgeStyle=orthogonalEdgeStyle;rounded=0;orthogonalLoop=1;jettySize=auto;html=1;entryX=0;entryY=0.5;entryDx=0;entryDy=0;" parent="1" source="FHG9pHrHQT706ERKXKWO-29" target="FHG9pHrHQT706ERKXKWO-33" edge="1">
          <mxGeometry relative="1" as="geometry" />
        </mxCell>
        <mxCell id="FHG9pHrHQT706ERKXKWO-29" value="Compile&lt;div&gt;Queue&lt;/div&gt;" style="sketch=0;outlineConnect=0;strokeColor=#d79b00;fillColor=#ffe6cc;dashed=0;verticalLabelPosition=bottom;verticalAlign=top;align=center;html=1;fontSize=12;fontStyle=0;aspect=fixed;shape=mxgraph.aws4.resourceIcon;resIcon=mxgraph.aws4.queue;" parent="1" vertex="1">
          <mxGeometry x="595" y="140" width="60" height="60" as="geometry" />
        </mxCell>
        <mxCell id="FHG9pHrHQT706ERKXKWO-30" value="Dynamic&lt;div&gt;Functions&lt;/div&gt;" style="shape=datastore;whiteSpace=wrap;html=1;fontSize=12;fillColor=#d5e8d4;strokeColor=#82b366;" parent="1" vertex="1">
          <mxGeometry x="900" y="295" width="90" height="60" as="geometry" />
        </mxCell>
        <mxCell id="FHG9pHrHQT706ERKXKWO-31" style="edgeStyle=orthogonalEdgeStyle;rounded=0;orthogonalLoop=1;jettySize=auto;html=1;exitX=0;exitY=0.75;exitDx=0;exitDy=0;entryX=1;entryY=0.5;entryDx=0;entryDy=0;" parent="1" source="FHG9pHrHQT706ERKXKWO-33" target="FHG9pHrHQT706ERKXKWO-22" edge="1">
          <mxGeometry relative="1" as="geometry" />
        </mxCell>
        <mxCell id="FHG9pHrHQT706ERKXKWO-32" style="edgeStyle=orthogonalEdgeStyle;rounded=0;orthogonalLoop=1;jettySize=auto;html=1;exitX=0.5;exitY=1;exitDx=0;exitDy=0;entryX=0.5;entryY=0;entryDx=0;entryDy=0;" parent="1" source="FHG9pHrHQT706ERKXKWO-33" target="FHG9pHrHQT706ERKXKWO-30" edge="1">
          <mxGeometry relative="1" as="geometry" />
        </mxCell>
        <mxCell id="FHG9pHrHQT706ERKXKWO-33" value="Rule Compiler&lt;div&gt;(Function)&lt;/div&gt;" style="rounded=1;whiteSpace=wrap;html=1;fillColor=#dae8fc;strokeColor=#6c8ebf;" parent="1" vertex="1">
          <mxGeometry x="870" y="140" width="150" height="60" as="geometry" />
        </mxCell>
        <mxCell id="FHG9pHrHQT706ERKXKWO-34" style="edgeStyle=orthogonalEdgeStyle;rounded=0;orthogonalLoop=1;jettySize=auto;html=1;entryX=0;entryY=0.5;entryDx=0;entryDy=0;" parent="1" source="FHG9pHrHQT706ERKXKWO-35" target="FHG9pHrHQT706ERKXKWO-41" edge="1">
          <mxGeometry relative="1" as="geometry" />
        </mxCell>
        <mxCell id="FHG9pHrHQT706ERKXKWO-35" value="PartnerX&lt;br&gt;&lt;div&gt;Queue&lt;/div&gt;" style="sketch=0;outlineConnect=0;strokeColor=#d79b00;fillColor=#ffe6cc;dashed=0;verticalLabelPosition=bottom;verticalAlign=top;align=center;html=1;fontSize=12;fontStyle=0;aspect=fixed;shape=mxgraph.aws4.resourceIcon;resIcon=mxgraph.aws4.queue;" parent="1" vertex="1">
          <mxGeometry x="1080" y="510" width="60" height="60" as="geometry" />
        </mxCell>
        <mxCell id="FHG9pHrHQT706ERKXKWO-36" value="PartnerX&lt;div&gt;DLQueue&lt;/div&gt;" style="sketch=0;outlineConnect=0;strokeColor=#d79b00;fillColor=#ffe6cc;dashed=0;verticalLabelPosition=bottom;verticalAlign=top;align=center;html=1;fontSize=12;fontStyle=0;aspect=fixed;shape=mxgraph.aws4.resourceIcon;resIcon=mxgraph.aws4.queue;" parent="1" vertex="1">
          <mxGeometry x="1080" y="630" width="60" height="60" as="geometry" />
        </mxCell>
        <mxCell id="FHG9pHrHQT706ERKXKWO-37" style="edgeStyle=orthogonalEdgeStyle;rounded=0;orthogonalLoop=1;jettySize=auto;html=1;exitX=1;exitY=0.5;exitDx=0;exitDy=0;entryX=0;entryY=0.5;entryDx=0;entryDy=0;fillColor=#e1d5e7;strokeColor=#9673a6;" parent="1" source="FHG9pHrHQT706ERKXKWO-41" target="FHG9pHrHQT706ERKXKWO-13" edge="1">
          <mxGeometry relative="1" as="geometry" />
        </mxCell>
        <mxCell id="FHG9pHrHQT706ERKXKWO-38" style="edgeStyle=orthogonalEdgeStyle;rounded=0;orthogonalLoop=1;jettySize=auto;html=1;exitX=0.75;exitY=1;exitDx=0;exitDy=0;entryX=0.25;entryY=0;entryDx=0;entryDy=0;fillColor=#e1d5e7;strokeColor=#9673a6;" parent="1" source="FHG9pHrHQT706ERKXKWO-41" target="FHG9pHrHQT706ERKXKWO-14" edge="1">
          <mxGeometry relative="1" as="geometry">
            <Array as="points">
              <mxPoint x="1333" y="870" />
              <mxPoint x="1573" y="870" />
            </Array>
          </mxGeometry>
        </mxCell>
        <mxCell id="FHG9pHrHQT706ERKXKWO-39" style="edgeStyle=orthogonalEdgeStyle;rounded=0;orthogonalLoop=1;jettySize=auto;html=1;exitX=0.5;exitY=1;exitDx=0;exitDy=0;entryX=0;entryY=0.5;entryDx=0;entryDy=0;" parent="1" source="FHG9pHrHQT706ERKXKWO-41" target="FHG9pHrHQT706ERKXKWO-56" edge="1">
          <mxGeometry relative="1" as="geometry" />
        </mxCell>
        <mxCell id="FHG9pHrHQT706ERKXKWO-40" style="edgeStyle=orthogonalEdgeStyle;rounded=0;orthogonalLoop=1;jettySize=auto;html=1;exitX=0.401;exitY=1.005;exitDx=0;exitDy=0;entryX=1;entryY=0.5;entryDx=0;entryDy=0;exitPerimeter=0;" parent="1" source="FHG9pHrHQT706ERKXKWO-41" target="FHG9pHrHQT706ERKXKWO-11" edge="1">
          <mxGeometry relative="1" as="geometry" />
        </mxCell>
        <mxCell id="-AXDvyKxRIpU5BXK8RGJ-6" style="edgeStyle=orthogonalEdgeStyle;rounded=0;orthogonalLoop=1;jettySize=auto;html=1;exitX=0.75;exitY=0;exitDx=0;exitDy=0;entryX=1;entryY=0.5;entryDx=0;entryDy=0;" edge="1" parent="1" source="FHG9pHrHQT706ERKXKWO-41" target="-AXDvyKxRIpU5BXK8RGJ-1">
          <mxGeometry relative="1" as="geometry" />
        </mxCell>
        <mxCell id="FHG9pHrHQT706ERKXKWO-41" value="Handler + Dedupe&lt;br&gt;&lt;div&gt;(Function)&lt;/div&gt;" style="rounded=1;whiteSpace=wrap;html=1;fillColor=#dae8fc;strokeColor=#6c8ebf;" parent="1" vertex="1">
          <mxGeometry x="1220" y="510" width="150" height="60" as="geometry" />
        </mxCell>
        <mxCell id="FHG9pHrHQT706ERKXKWO-42" style="edgeStyle=orthogonalEdgeStyle;rounded=0;orthogonalLoop=1;jettySize=auto;html=1;exitX=0.25;exitY=1;exitDx=0;exitDy=0;entryX=0.989;entryY=0.517;entryDx=0;entryDy=0;entryPerimeter=0;" parent="1" source="FHG9pHrHQT706ERKXKWO-41" target="FHG9pHrHQT706ERKXKWO-36" edge="1">
          <mxGeometry relative="1" as="geometry" />
        </mxCell>
        <mxCell id="FHG9pHrHQT706ERKXKWO-43" value="Offer routing system" style="text;html=1;align=center;verticalAlign=middle;whiteSpace=wrap;rounded=0;fontSize=24;fontStyle=5" parent="1" vertex="1">
          <mxGeometry x="560" y="10" width="625" height="30" as="geometry" />
        </mxCell>
        <mxCell id="FHG9pHrHQT706ERKXKWO-44" style="edgeStyle=orthogonalEdgeStyle;rounded=0;orthogonalLoop=1;jettySize=auto;html=1;exitX=1;exitY=0.5;exitDx=0;exitDy=0;entryX=0.25;entryY=1;entryDx=0;entryDy=0;fillColor=#e1d5e7;strokeColor=#9673a6;" parent="1" source="FHG9pHrHQT706ERKXKWO-45" target="FHG9pHrHQT706ERKXKWO-14" edge="1">
          <mxGeometry relative="1" as="geometry" />
        </mxCell>
        <mxCell id="FHG9pHrHQT706ERKXKWO-45" value="Queue metrics&lt;br&gt;&lt;div&gt;(Function)&lt;/div&gt;" style="rounded=1;whiteSpace=wrap;html=1;fillColor=#dae8fc;strokeColor=#6c8ebf;" parent="1" vertex="1">
          <mxGeometry x="1260" y="985" width="150" height="60" as="geometry" />
        </mxCell>
        <mxCell id="FHG9pHrHQT706ERKXKWO-46" value="" style="edgeStyle=orthogonalEdgeStyle;rounded=0;orthogonalLoop=1;jettySize=auto;html=1;" parent="1" target="FHG9pHrHQT706ERKXKWO-45" edge="1">
          <mxGeometry relative="1" as="geometry">
            <mxPoint x="1130" y="1015" as="sourcePoint" />
          </mxGeometry>
        </mxCell>
        <mxCell id="FHG9pHrHQT706ERKXKWO-48" value="Lead&lt;div&gt;Identity&lt;/div&gt;" style="shape=datastore;whiteSpace=wrap;html=1;fontSize=12;fillColor=#d5e8d4;strokeColor=#82b366;" parent="1" vertex="1">
          <mxGeometry x="652.5" y="770" width="80" height="80" as="geometry" />
        </mxCell>
        <mxCell id="FHG9pHrHQT706ERKXKWO-49" value="" style="edgeStyle=orthogonalEdgeStyle;rounded=0;orthogonalLoop=1;jettySize=auto;html=1;exitX=1;exitY=0.5;exitDx=0;exitDy=0;" parent="1" source="FHG9pHrHQT706ERKXKWO-55" target="FHG9pHrHQT706ERKXKWO-53" edge="1">
          <mxGeometry relative="1" as="geometry">
            <mxPoint x="690" y="505" as="sourcePoint" />
            <mxPoint x="1240" y="540" as="targetPoint" />
          </mxGeometry>
        </mxCell>
        <mxCell id="FHG9pHrHQT706ERKXKWO-50" style="edgeStyle=orthogonalEdgeStyle;rounded=0;orthogonalLoop=1;jettySize=auto;html=1;exitX=0.5;exitY=0;exitDx=0;exitDy=0;entryX=0.5;entryY=1;entryDx=0;entryDy=0;" parent="1" source="FHG9pHrHQT706ERKXKWO-53" target="FHG9pHrHQT706ERKXKWO-30" edge="1">
          <mxGeometry relative="1" as="geometry" />
        </mxCell>
        <mxCell id="FHG9pHrHQT706ERKXKWO-51" style="edgeStyle=orthogonalEdgeStyle;rounded=0;orthogonalLoop=1;jettySize=auto;html=1;exitX=0.5;exitY=1;exitDx=0;exitDy=0;entryX=0;entryY=0.25;entryDx=0;entryDy=0;fillColor=#e1d5e7;strokeColor=#9673a6;" parent="1" source="FHG9pHrHQT706ERKXKWO-53" target="FHG9pHrHQT706ERKXKWO-14" edge="1">
          <mxGeometry relative="1" as="geometry" />
        </mxCell>
        <mxCell id="FHG9pHrHQT706ERKXKWO-52" style="edgeStyle=orthogonalEdgeStyle;rounded=0;orthogonalLoop=1;jettySize=auto;html=1;exitX=0.25;exitY=1;exitDx=0;exitDy=0;" parent="1" source="FHG9pHrHQT706ERKXKWO-53" target="FHG9pHrHQT706ERKXKWO-61" edge="1">
          <mxGeometry relative="1" as="geometry">
            <Array as="points">
              <mxPoint x="908" y="660" />
            </Array>
          </mxGeometry>
        </mxCell>
        <mxCell id="FHG9pHrHQT706ERKXKWO-53" value="Router&lt;div&gt;(Function)&lt;/div&gt;" style="rounded=1;whiteSpace=wrap;html=1;fillColor=#dae8fc;strokeColor=#6c8ebf;" parent="1" vertex="1">
          <mxGeometry x="870" y="510" width="150" height="60" as="geometry" />
        </mxCell>
        <mxCell id="FHG9pHrHQT706ERKXKWO-54" value="" style="edgeStyle=orthogonalEdgeStyle;rounded=0;orthogonalLoop=1;jettySize=auto;html=1;exitX=1;exitY=0.5;exitDx=0;exitDy=0;" parent="1" source="FHG9pHrHQT706ERKXKWO-19" target="FHG9pHrHQT706ERKXKWO-55" edge="1">
          <mxGeometry relative="1" as="geometry">
            <mxPoint x="708" y="540" as="sourcePoint" />
            <mxPoint x="910" y="575" as="targetPoint" />
          </mxGeometry>
        </mxCell>
        <mxCell id="FHG9pHrHQT706ERKXKWO-55" value="Routing&lt;div&gt;Queue&lt;/div&gt;" style="sketch=0;outlineConnect=0;strokeColor=#d79b00;fillColor=#ffe6cc;dashed=0;verticalLabelPosition=bottom;verticalAlign=top;align=center;html=1;fontSize=12;fontStyle=0;aspect=fixed;shape=mxgraph.aws4.resourceIcon;resIcon=mxgraph.aws4.queue;" parent="1" vertex="1">
          <mxGeometry x="760" y="510" width="60" height="60" as="geometry" />
        </mxCell>
        <mxCell id="FHG9pHrHQT706ERKXKWO-56" value="Circuit breaker" style="shape=datastore;whiteSpace=wrap;html=1;fontSize=12;fillColor=#d5e8d4;strokeColor=#82b366;" parent="1" vertex="1">
          <mxGeometry x="1390" y="770" width="80" height="80" as="geometry" />
        </mxCell>
        <mxCell id="FHG9pHrHQT706ERKXKWO-57" style="edgeStyle=orthogonalEdgeStyle;rounded=0;orthogonalLoop=1;jettySize=auto;html=1;exitX=0.5;exitY=1;exitDx=0;exitDy=0;" parent="1" source="FHG9pHrHQT706ERKXKWO-43" target="FHG9pHrHQT706ERKXKWO-43" edge="1">
          <mxGeometry relative="1" as="geometry" />
        </mxCell>
        <mxCell id="FHG9pHrHQT706ERKXKWO-58" value="Supabase" style="text;html=1;align=center;verticalAlign=middle;whiteSpace=wrap;rounded=0;fontSize=24;fontStyle=1" parent="1" vertex="1">
          <mxGeometry x="720" y="70" width="320" height="30" as="geometry" />
        </mxCell>
        <mxCell id="FHG9pHrHQT706ERKXKWO-59" value="UI" style="text;html=1;align=center;verticalAlign=middle;whiteSpace=wrap;rounded=0;fontSize=24;fontStyle=1" parent="1" vertex="1">
          <mxGeometry x="10" y="70" width="160" height="30" as="geometry" />
        </mxCell>
        <mxCell id="FHG9pHrHQT706ERKXKWO-60" value="External&lt;div&gt;Services&lt;/div&gt;" style="text;html=1;align=center;verticalAlign=middle;whiteSpace=wrap;rounded=0;fontSize=24;fontStyle=1" parent="1" vertex="1">
          <mxGeometry x="1520" y="80" width="160" height="50" as="geometry" />
        </mxCell>
        <mxCell id="FHG9pHrHQT706ERKXKWO-61" value="Routing&lt;div&gt;DLQueue&lt;/div&gt;" style="sketch=0;outlineConnect=0;strokeColor=#d79b00;fillColor=#ffe6cc;dashed=0;verticalLabelPosition=bottom;verticalAlign=top;align=center;html=1;fontSize=12;fontStyle=0;aspect=fixed;shape=mxgraph.aws4.resourceIcon;resIcon=mxgraph.aws4.queue;" parent="1" vertex="1">
          <mxGeometry x="760" y="630" width="60" height="60" as="geometry" />
        </mxCell>
        <mxCell id="-AXDvyKxRIpU5BXK8RGJ-1" value="Partner&lt;div&gt;Configurations&lt;/div&gt;" style="shape=datastore;whiteSpace=wrap;html=1;fontSize=12;fillColor=#d5e8d4;strokeColor=#82b366;" vertex="1" parent="1">
          <mxGeometry x="580" y="350" width="90" height="90" as="geometry" />
        </mxCell>
        <mxCell id="-AXDvyKxRIpU5BXK8RGJ-9" value="PGMQ&lt;div&gt;metrics&lt;/div&gt;" style="shape=process;whiteSpace=wrap;html=1;backgroundOutline=1;" vertex="1" parent="1">
          <mxGeometry x="1010" y="985" width="120" height="60" as="geometry" />
        </mxCell>
        <mxCell id="-AXDvyKxRIpU5BXK8RGJ-14" style="edgeStyle=orthogonalEdgeStyle;rounded=0;orthogonalLoop=1;jettySize=auto;html=1;exitX=1;exitY=0.5;exitDx=0;exitDy=0;entryX=0;entryY=0.5;entryDx=0;entryDy=0;" edge="1" parent="1" source="-AXDvyKxRIpU5BXK8RGJ-13" target="FHG9pHrHQT706ERKXKWO-30">
          <mxGeometry relative="1" as="geometry" />
        </mxCell>
        <mxCell id="-AXDvyKxRIpU5BXK8RGJ-13" value="/api/partner&lt;div&gt;&lt;div&gt;(Function)&lt;/div&gt;&lt;/div&gt;" style="rounded=1;whiteSpace=wrap;html=1;fontSize=12;fillColor=#dae8fc;strokeColor=#6c8ebf;" vertex="1" parent="1">
          <mxGeometry x="230" y="290" width="130" height="70" as="geometry" />
        </mxCell>
        <mxCell id="-AXDvyKxRIpU5BXK8RGJ-15" value="" style="group" vertex="1" connectable="0" parent="1">
          <mxGeometry x="1275" y="150" width="155" height="100" as="geometry" />
        </mxCell>
        <mxCell id="FHG9pHrHQT706ERKXKWO-63" value="" style="group" parent="-AXDvyKxRIpU5BXK8RGJ-15" vertex="1" connectable="0">
          <mxGeometry width="155" height="20" as="geometry" />
        </mxCell>
        <mxCell id="FHG9pHrHQT706ERKXKWO-64" value="" style="rounded=1;whiteSpace=wrap;html=1;" parent="FHG9pHrHQT706ERKXKWO-63" vertex="1">
          <mxGeometry width="20" height="20" as="geometry" />
        </mxCell>
        <mxCell id="FHG9pHrHQT706ERKXKWO-65" value="User interface" style="text;html=1;align=left;verticalAlign=middle;whiteSpace=wrap;rounded=0;" parent="FHG9pHrHQT706ERKXKWO-63" vertex="1">
          <mxGeometry x="20" width="135" height="20" as="geometry" />
        </mxCell>
        <mxCell id="FHG9pHrHQT706ERKXKWO-66" value="" style="group" parent="-AXDvyKxRIpU5BXK8RGJ-15" vertex="1" connectable="0">
          <mxGeometry y="20" width="155" height="20" as="geometry" />
        </mxCell>
        <mxCell id="FHG9pHrHQT706ERKXKWO-67" value="" style="rounded=1;whiteSpace=wrap;html=1;fillColor=#dae8fc;strokeColor=#6c8ebf;" parent="FHG9pHrHQT706ERKXKWO-66" vertex="1">
          <mxGeometry width="20" height="20" as="geometry" />
        </mxCell>
        <mxCell id="FHG9pHrHQT706ERKXKWO-68" value="Edge function" style="text;html=1;align=left;verticalAlign=middle;whiteSpace=wrap;rounded=0;" parent="FHG9pHrHQT706ERKXKWO-66" vertex="1">
          <mxGeometry x="20" width="135" height="20" as="geometry" />
        </mxCell>
        <mxCell id="FHG9pHrHQT706ERKXKWO-69" value="" style="group" parent="-AXDvyKxRIpU5BXK8RGJ-15" vertex="1" connectable="0">
          <mxGeometry y="40" width="155" height="20" as="geometry" />
        </mxCell>
        <mxCell id="FHG9pHrHQT706ERKXKWO-70" value="" style="rounded=1;whiteSpace=wrap;html=1;fillColor=#d5e8d4;strokeColor=#82b366;" parent="FHG9pHrHQT706ERKXKWO-69" vertex="1">
          <mxGeometry width="20" height="20" as="geometry" />
        </mxCell>
        <mxCell id="FHG9pHrHQT706ERKXKWO-71" value="Table" style="text;html=1;align=left;verticalAlign=middle;whiteSpace=wrap;rounded=0;" parent="FHG9pHrHQT706ERKXKWO-69" vertex="1">
          <mxGeometry x="20" width="135" height="20" as="geometry" />
        </mxCell>
        <mxCell id="FHG9pHrHQT706ERKXKWO-72" value="" style="group" parent="-AXDvyKxRIpU5BXK8RGJ-15" vertex="1" connectable="0">
          <mxGeometry y="60" width="155" height="20" as="geometry" />
        </mxCell>
        <mxCell id="FHG9pHrHQT706ERKXKWO-73" value="" style="rounded=1;whiteSpace=wrap;html=1;fillColor=#ffe6cc;strokeColor=#d79b00;" parent="FHG9pHrHQT706ERKXKWO-72" vertex="1">
          <mxGeometry width="20" height="20" as="geometry" />
        </mxCell>
        <mxCell id="FHG9pHrHQT706ERKXKWO-74" value="Queue" style="text;html=1;align=left;verticalAlign=middle;whiteSpace=wrap;rounded=0;" parent="FHG9pHrHQT706ERKXKWO-72" vertex="1">
          <mxGeometry x="20" width="135" height="20" as="geometry" />
        </mxCell>
        <mxCell id="FHG9pHrHQT706ERKXKWO-75" value="" style="group" parent="-AXDvyKxRIpU5BXK8RGJ-15" vertex="1" connectable="0">
          <mxGeometry y="80" width="155" height="20" as="geometry" />
        </mxCell>
        <mxCell id="FHG9pHrHQT706ERKXKWO-76" value="" style="rounded=1;whiteSpace=wrap;html=1;fillColor=#e1d5e7;strokeColor=#9673a6;" parent="FHG9pHrHQT706ERKXKWO-75" vertex="1">
          <mxGeometry width="20" height="20" as="geometry" />
        </mxCell>
        <mxCell id="FHG9pHrHQT706ERKXKWO-77" value="External service" style="text;html=1;align=left;verticalAlign=middle;whiteSpace=wrap;rounded=0;" parent="FHG9pHrHQT706ERKXKWO-75" vertex="1">
          <mxGeometry x="20" width="135" height="20" as="geometry" />
        </mxCell>
      </root>
    </mxGraphModel>
  </diagram>
</mxfile>
